<svg width="107" height="120" viewBox="0 0 107 120" fill="none" xmlns="http://www.w3.org/2000/svg">
<g clip-path="url(#clip0_11_76)">
<path d="M38.3 93C36.9 93 35.9 91.9 35.9 90.6V79.4C31.5 77.3 19 70.5 16.3 60.6C14.2 53.2 15.2 45.1 19.2 36.5C24.3 25.3 34.7 13.3 50 0.700001C51.2 -0.299999 53 -0.299999 54.2 0.700001C69.4 13.3 79.8 25.3 85 36.5C89 45.1 90 53.2 87.9 60.6C86.6 65.1 83.3 69.5 77.9 73.6C76.8 74.4 75.3 74.2 74.5 73.1C73.7 72 73.9 70.5 75 69.7C79.5 66.3 82.3 62.7 83.3 59.3C86.1 48.9 83 31.1 52.1 5.4C21.1 31.1 18 48.9 20.9 59.3C23.5 68.6 38.5 75.3 39.1 75.6C40.1 76 40.7 77 40.7 78V90.6C40.7 91.9 39.6 93 38.3 93Z" fill="url(#paint0_linear_11_76)"/>
<path d="M86.9 120C84.1 120 81.8 119.8 80.6 119.6C71.1 118.4 54.5 109.6 53.8 109.2L50.9 107.6C50.8 107.5 34.5 98.8 25.8 97.7C19.7 96.9 11.2 97.2 7.10003 100.6C5.70003 101.8 4.90003 103.3 4.80003 105.2C4.70003 107.5 5.40003 109.4 6.90003 111C9.60003 113.8 15 115.2 21.6 115C32 114.7 45.5 108.6 45.6 108.5C46.8 107.9 48.3 108.5 48.8 109.7C49.4 110.9 48.8 112.4 47.6 112.9C47 113.2 33.1 119.5 21.6 119.9C13.5 120.1 7.00003 118.2 3.30003 114.4C0.900027 111.9 -0.399973 108.7 -0.199973 105C-0.0999726 101.7 1.30003 99 3.80003 96.8C10.4 91.2 22.7 92.3 26.3 92.8C35.8 94 52.4 102.8 53.1 103.2L56 104.8C56.1 104.9 72.4 113.6 81.1 114.7C87.2 115.5 95.7 115.2 99.8 111.8C101.2 110.6 102 109.1 102.1 107.2C102.2 104.9 101.5 103 100 101.4C97.3 98.6 91.9 97.2 85.3 97.4C81.3 97.5 76.3 98.5 70.6 100.3C69.8 100.6 68.8 100.4 68.1 99.9C67.4 99.4 67 98.5 67 97.6V79.9C67 79.5 66.9 71.2 60.2 68C51.2 63.6 43.5 58.4 39.8 54.1C38.4 52.4 36.6 49.2 36.5 48.8L36.4 48.6C35.4 46.4 35 44.1 35 41.7C35 32.3 42.6 24.7 52 24.7C61.4 24.7 69 32.3 69 41.7C69 48 65.6 53.7 60 56.7C58.8 57.3 57.3 56.9 56.7 55.7C56.1 54.5 56.5 53 57.7 52.4C61.6 50.3 64.1 46.2 64.1 41.7C64.1 35 58.7 29.6 52 29.6C45.3 29.6 39.9 35 39.9 41.7C39.9 43.4 40.2 45 40.9 46.5C41.4 47.4 42.7 49.8 43.6 50.8C46.9 54.6 54.1 59.5 62.4 63.5C71.9 68.1 72 79.4 72 79.8V94.7C77 93.3 81.5 92.5 85.3 92.4C93.4 92.2 99.9 94.1 103.6 97.9C106 100.4 107.3 103.6 107.1 107.3C107 110.6 105.6 113.3 103.1 115.5C98.7 119.2 92 120 86.9 120Z" fill="url(#paint1_linear_11_76)"/>
</g>
<defs>
<linearGradient id="paint0_linear_11_76" x1="52.0666" y1="122.154" x2="52.0666" y2="4.4893" gradientUnits="userSpaceOnUse">
<stop offset="0.00537634" stop-color="#319B4B"/>
<stop offset="0.0909442" stop-color="#3AA352"/>
<stop offset="0.3295" stop-color="#4EB563"/>
<stop offset="0.4911" stop-color="#55BB69"/>
<stop offset="1" stop-color="#38B9AE"/>
</linearGradient>
<linearGradient id="paint1_linear_11_76" x1="53.5182" y1="122.154" x2="53.5182" y2="4.4891" gradientUnits="userSpaceOnUse">
<stop offset="0.00537634" stop-color="#319B4B"/>
<stop offset="0.0909442" stop-color="#3AA352"/>
<stop offset="0.3295" stop-color="#4EB563"/>
<stop offset="0.4911" stop-color="#55BB69"/>
<stop offset="1" stop-color="#38B9AE"/>
</linearGradient>
<clipPath id="clip0_11_76">
<rect width="107" height="120" fill="white"/>
</clipPath>
</defs>
</svg>
