<svg width="36" height="40" viewBox="0 0 36 40" fill="none" xmlns="http://www.w3.org/2000/svg">
<path d="M12.7319 31C12.2665 31 11.9341 30.6333 11.9341 30.2V26.4667C10.4714 25.7667 6.31609 23.5 5.41854 20.2C4.72045 17.7333 5.05287 15.0333 6.38257 12.1667C8.07794 8.43334 11.5352 4.43334 16.6213 0.233337C17.0202 -0.0999959 17.6185 -0.0999959 18.0175 0.233337C23.0703 4.43334 26.5275 8.43334 28.2561 12.1667C29.5858 15.0333 29.9183 17.7333 29.2202 20.2C28.788 21.7 27.691 23.1667 25.8959 24.5333C25.5303 24.8 25.0316 24.7333 24.7657 24.3667C24.4997 24 24.5662 23.5 24.9319 23.2333C26.4278 22.1 27.3586 20.9 27.691 19.7667C28.6218 16.3 27.5913 10.3667 17.3194 1.8C7.01418 10.3667 5.98366 16.3 6.94769 19.7667C7.812 22.8667 12.7984 25.1 12.9978 25.2C13.3303 25.3333 13.5297 25.6667 13.5297 26V30.2C13.5297 30.6333 13.164 31 12.7319 31Z" fill="white"/>
<path d="M28.8877 40C27.9569 40 27.1924 39.9333 26.7935 39.8667C23.6354 39.4667 18.1172 36.5333 17.8845 36.4L16.9204 35.8667C16.8872 35.8333 11.4687 32.9333 8.57656 32.5667C6.54877 32.3 3.72315 32.4 2.36021 33.5333C1.89482 33.9333 1.62888 34.4333 1.59563 35.0667C1.56239 35.8333 1.79509 36.4667 2.29373 37C3.19127 37.9333 4.98637 38.4 7.18037 38.3333C10.6376 38.2333 15.1253 36.2 15.1586 36.1667C15.5575 35.9667 16.0561 36.1667 16.2223 36.5667C16.4218 36.9667 16.2223 37.4667 15.8234 37.6333C15.624 37.7333 11.0033 39.8333 7.18037 39.9667C4.48773 40.0333 2.32697 39.4 1.09699 38.1333C0.299175 37.3 -0.132978 36.2333 -0.0664927 35C-0.0332502 33.9 0.432145 33 1.26321 32.2667C3.45721 30.4 7.54604 30.7667 8.74277 30.9333C11.9008 31.3333 17.4191 34.2667 17.6518 34.4L18.6158 34.9333C18.649 34.9667 24.0676 37.8667 26.9597 38.2333C28.9875 38.5 31.8131 38.4 33.176 37.2667C33.6414 36.8667 33.9073 36.3667 33.9406 35.7333C33.9738 34.9667 33.7411 34.3333 33.2425 33.8C32.345 32.8667 30.5499 32.4 28.3559 32.4667C27.0262 32.5 25.364 32.8333 23.4692 33.4333C23.2033 33.5333 22.8708 33.4667 22.6381 33.3C22.4054 33.1333 22.2725 32.8333 22.2725 32.5333V26.6333C22.2725 26.5 22.2392 23.7333 20.012 22.6667C17.0202 21.2 14.4605 19.4667 13.2305 18.0333C12.7651 17.4667 12.1667 16.4 12.1335 16.2667L12.1003 16.2C11.7678 15.4667 11.6349 14.7 11.6349 13.9C11.6349 10.7667 14.1613 8.23334 17.2861 8.23334C20.4109 8.23334 22.9373 10.7667 22.9373 13.9C22.9373 16 21.8071 17.9 19.9455 18.9C19.5466 19.1 19.0479 18.9667 18.8485 18.5667C18.649 18.1667 18.782 17.6667 19.1809 17.4667C20.4774 16.7667 21.3084 15.4 21.3084 13.9C21.3084 11.6667 19.5133 9.86667 17.2861 9.86667C15.0588 9.86667 13.2638 11.6667 13.2638 13.9C13.2638 14.4667 13.3635 15 13.5962 15.5C13.7624 15.8 14.1945 16.6 14.4937 16.9333C15.5907 18.2 17.9842 19.8333 20.7433 21.1667C23.9014 22.7 23.9346 26.4667 23.9346 26.6V31.5667C25.5967 31.1 27.0926 30.8333 28.3559 30.8C31.0485 30.7333 33.2093 31.3667 34.4392 32.6333C35.237 33.4667 35.6692 34.5333 35.6027 35.7667C35.5695 36.8667 35.1041 37.7667 34.273 38.5C32.8103 39.7333 30.5831 40 28.8877 40Z" fill="white"/>
</svg>
