<svg id="Layer_2" data-name="Layer 2" xmlns="http://www.w3.org/2000/svg" width="20" height="20" viewBox="0 0 20 20">
  <g id="trash">
    <rect id="Rectangle_1966" data-name="Rectangle 1966" width="20" height="20" fill="#f0f4f8" opacity="0"/>
    <path id="Path_2113" data-name="Path 2113" d="M17.833,5.333H13.667V3.941A2.017,2.017,0,0,0,11.583,2h-2.5A2.017,2.017,0,0,0,7,3.941V5.333H2.833A.833.833,0,1,0,2.833,7h.833v9.167a2.5,2.5,0,0,0,2.5,2.5H14.5a2.5,2.5,0,0,0,2.5-2.5V7h.833a.833.833,0,0,0,0-1.667ZM8.667,3.941c0-.133.175-.275.417-.275h2.5c.242,0,.417.142.417.275V5.333H8.667Zm6.667,12.225A.833.833,0,0,1,14.5,17H6.167a.833.833,0,0,1-.833-.833V7h10Z" transform="translate(-0.333 -0.333)" fill="#f0f4f8"/>
  </g>
</svg>
