<svg width="18" height="22" viewBox="0 0 18 22" fill="none" xmlns="http://www.w3.org/2000/svg">
<path d="M9.00001 10.9424C11.7455 10.9424 13.9712 8.71672 13.9712 5.9712C13.9712 3.22568 11.7455 1 9.00001 1C6.2545 1 4.02881 3.22568 4.02881 5.9712C4.02881 8.71672 6.2545 10.9424 9.00001 10.9424Z" stroke="white" stroke-width="1.5" stroke-linecap="round" stroke-linejoin="round"/>
<path fill-rule="evenodd" clip-rule="evenodd" d="M1.11922 18.0804C1.1179 17.7309 1.19606 17.3857 1.3478 17.0709C1.82397 16.1185 3.16677 15.6138 4.28102 15.3852C5.08461 15.2137 5.8993 15.0992 6.71902 15.0424C8.23667 14.9091 9.76309 14.9091 11.2807 15.0424C12.1004 15.0998 12.915 15.2144 13.7187 15.3852C14.833 15.6138 16.1758 16.0709 16.652 17.0709C16.9571 17.7126 16.9571 18.4576 16.652 19.0994C16.1758 20.0993 14.833 20.5565 13.7187 20.7755C12.9161 20.9541 12.1011 21.0719 11.2807 21.1279C10.0455 21.2326 8.80448 21.2517 7.5666 21.185C7.2809 21.185 7.00472 21.185 6.71902 21.1279C5.90172 21.0726 5.08985 20.9548 4.29054 20.7755C3.16677 20.5565 1.83349 20.0993 1.3478 19.0994C1.19683 18.7809 1.11875 18.4328 1.11922 18.0804Z" stroke="white" stroke-width="1.5" stroke-linecap="round" stroke-linejoin="round"/>
</svg>
