<svg width="20" height="20" viewBox="0 0 20 20" fill="none" xmlns="http://www.w3.org/2000/svg">
<path d="M9.47991 1.49897C9.5222 1.3958 9.59423 1.30755 9.68683 1.24543C9.77942 1.18331 9.8884 1.15015 9.99991 1.15015C10.1114 1.15015 10.2204 1.18331 10.313 1.24543C10.4056 1.30755 10.4776 1.3958 10.5199 1.49897L12.6449 6.60997C12.6847 6.70561 12.7501 6.78841 12.8339 6.84928C12.9177 6.91015 13.0167 6.94672 13.1199 6.95497L18.6379 7.39697C19.1369 7.43697 19.3389 8.05997 18.9589 8.38497L14.7549 11.987C14.6764 12.0542 14.6178 12.1417 14.5857 12.2399C14.5536 12.3382 14.5492 12.4434 14.5729 12.544L15.8579 17.929C15.8837 18.037 15.877 18.1503 15.8385 18.2545C15.7999 18.3587 15.7314 18.4491 15.6415 18.5144C15.5517 18.5797 15.4444 18.6168 15.3335 18.6212C15.2225 18.6256 15.1126 18.597 15.0179 18.539L10.2929 15.654C10.2046 15.6002 10.1033 15.5717 9.99991 15.5717C9.89654 15.5717 9.79517 15.6002 9.70691 15.654L4.98191 18.54C4.88716 18.598 4.77736 18.6266 4.66636 18.6222C4.55537 18.6178 4.44816 18.5807 4.35827 18.5154C4.26839 18.4501 4.19987 18.3597 4.16136 18.2555C4.12285 18.1513 4.11608 18.038 4.14191 17.93L5.42691 12.544C5.45074 12.4434 5.44636 12.3381 5.41425 12.2399C5.38214 12.1416 5.32354 12.0541 5.24491 11.987L1.04091 8.38497C0.95672 8.31258 0.895817 8.21692 0.865856 8.11001C0.835895 8.00309 0.838215 7.88971 0.872523 7.78412C0.906831 7.67852 0.971595 7.58543 1.05867 7.51654C1.14575 7.44766 1.25125 7.40606 1.36191 7.39697L6.87991 6.95497C6.98316 6.94672 7.08213 6.91015 7.16593 6.84928C7.24974 6.78841 7.31513 6.70561 7.35491 6.60997L9.47991 1.49997V1.49897Z" stroke="#7C9A92" stroke-width="1.5" stroke-linecap="round" stroke-linejoin="round"/>
</svg>
