<svg width="22" height="22" viewBox="0 0 22 22" fill="none" xmlns="http://www.w3.org/2000/svg">
<path d="M14.75 4.2502C15.5456 4.2502 16.3087 4.56627 16.8713 5.12888C17.4339 5.69149 17.75 6.45455 17.75 7.2502M20.75 7.2502C20.7501 8.12532 20.5588 8.98987 20.1895 9.78323C19.8202 10.5766 19.2818 11.2796 18.6121 11.8429C17.9424 12.4062 17.1575 12.8161 16.3126 13.044C15.4677 13.272 14.5831 13.3123 13.721 13.1622C13.158 13.0652 12.562 13.1882 12.158 13.5922L9.5 16.2502H7.25V18.5002H5V20.7502H1.25V17.9322C1.25 17.3352 1.487 16.7622 1.909 16.3412L8.408 9.8422C8.812 9.4382 8.935 8.8422 8.838 8.2792C8.6962 7.46037 8.72604 6.62101 8.92563 5.81431C9.12522 5.00761 9.49021 4.25117 9.99748 3.59293C10.5047 2.93469 11.1432 2.389 11.8724 1.99044C12.6016 1.59188 13.4057 1.34915 14.2336 1.27763C15.0616 1.20611 15.8953 1.30736 16.6821 1.57496C17.4688 1.84256 18.1914 2.27068 18.8041 2.83218C19.4167 3.39369 19.906 4.07633 20.241 4.83685C20.5759 5.59737 20.7493 6.41918 20.75 7.2502V7.2502Z" stroke="#7C9A92" stroke-width="1.5" stroke-linecap="round" stroke-linejoin="round"/>
</svg>
