<svg width="18" height="19" viewBox="0 0 18 19" fill="none" xmlns="http://www.w3.org/2000/svg">
<path d="M14.071 3.27981H3.11764L4.30426 2.10231C4.47614 1.93043 4.5727 1.69731 4.5727 1.45424C4.5727 1.21116 4.47614 0.978042 4.30426 0.806162C4.13238 0.634281 3.89926 0.53772 3.65618 0.53772C3.41311 0.53772 3.17999 0.634281 3.00811 0.806162L0.269756 3.54451C0.184202 3.62937 0.116296 3.73032 0.0699552 3.84155C0.0236144 3.95278 -0.000244141 4.07209 -0.000244141 4.19259C-0.000244141 4.31309 0.0236144 4.43239 0.0699552 4.54362C0.116296 4.65486 0.184202 4.75581 0.269756 4.84067L3.00811 7.57902C3.09296 7.66457 3.19392 7.73248 3.30515 7.77882C3.41638 7.82516 3.53568 7.84902 3.65618 7.84902C3.77668 7.84902 3.89599 7.82516 4.00722 7.77882C4.11845 7.73248 4.2194 7.66457 4.30426 7.57902C4.38981 7.49416 4.45772 7.39321 4.50406 7.28198C4.5504 7.17074 4.57426 7.05144 4.57426 6.93094C4.57426 6.81044 4.5504 6.69114 4.50406 6.5799C4.45772 6.46867 4.38981 6.36772 4.30426 6.28286L3.11764 5.10537H14.071C14.258 5.10174 14.4439 5.13499 14.6181 5.20321C14.7922 5.27144 14.9512 5.3733 15.086 5.50299C15.2208 5.63268 15.3287 5.78765 15.4036 5.95905C15.4784 6.13046 15.5188 6.31493 15.5224 6.50193V8.75651C15.5224 8.99859 15.6185 9.23076 15.7897 9.40194C15.9609 9.57312 16.1931 9.66929 16.4352 9.66929C16.6772 9.66929 16.9094 9.57312 17.0806 9.40194C17.2518 9.23076 17.3479 8.99859 17.3479 8.75651V6.50193C17.3444 6.0752 17.2568 5.65334 17.0901 5.26046C16.9235 4.86759 16.6811 4.51137 16.3768 4.21217C16.0726 3.91296 15.7123 3.67662 15.3167 3.51665C14.921 3.35667 14.4978 3.27619 14.071 3.27981ZM14.3449 11.7596C14.173 11.5877 13.9399 11.4911 13.6968 11.4911C13.4537 11.4911 13.2206 11.5877 13.0487 11.7596C12.8768 11.9314 12.7803 12.1646 12.7803 12.4076C12.7803 12.6507 12.8768 12.8838 13.0487 13.0557L14.2353 14.2332H3.28194C3.09494 14.2368 2.90905 14.2036 2.7349 14.1354C2.56075 14.0671 2.40174 13.9653 2.26697 13.8356C2.13219 13.7059 2.02429 13.5509 1.94942 13.3795C1.87455 13.2081 1.83418 13.0237 1.83062 12.8366V10.5821C1.83062 10.34 1.73445 10.1078 1.56327 9.93664C1.39209 9.76546 1.15992 9.66929 0.917832 9.66929C0.675747 9.66929 0.443577 9.76546 0.272397 9.93664C0.101216 10.1078 0.00504849 10.34 0.00504849 10.5821V12.8366C0.00862943 13.2634 0.096231 13.6852 0.262851 14.0781C0.429471 14.471 0.671847 14.8272 0.976138 15.1264C1.28043 15.4256 1.64067 15.662 2.03631 15.8219C2.43194 15.9819 2.85521 16.0624 3.28194 16.0588H14.2353L13.0487 17.2363C12.9632 17.3211 12.8953 17.4221 12.8489 17.5333C12.8026 17.6445 12.7787 17.7638 12.7787 17.8843C12.7787 18.0048 12.8026 18.1241 12.8489 18.2354C12.8953 18.3466 12.9632 18.4476 13.0487 18.5324C13.1336 18.618 13.2345 18.6859 13.3458 18.7322C13.457 18.7786 13.5763 18.8024 13.6968 18.8024C13.8173 18.8024 13.9366 18.7786 14.0478 18.7322C14.1591 18.6859 14.26 18.618 14.3449 18.5324L17.0832 15.7941C17.1688 15.7092 17.2367 15.6083 17.283 15.497C17.3294 15.3858 17.3532 15.2665 17.3532 15.146C17.3532 15.0255 17.3294 14.9062 17.283 14.795C17.2367 14.6837 17.1688 14.5828 17.0832 14.4979L14.3449 11.7596Z" fill="white"/>
</svg>
