<svg width="19" height="21" viewBox="0 0 19 21" fill="none" xmlns="http://www.w3.org/2000/svg">
<path d="M4.33933 0.272827C5.23239 0.272827 6.08887 0.627594 6.72036 1.25908C7.35185 1.89057 7.70662 2.74705 7.70662 3.64011V17.1093C7.70662 18.0023 7.35185 18.8588 6.72036 19.4903C6.08887 20.1218 5.23239 20.4765 4.33933 20.4765C3.44627 20.4765 2.58979 20.1218 1.9583 19.4903C1.32681 18.8588 0.972046 18.0023 0.972046 17.1093V3.64011C0.972046 2.74705 1.32681 1.89057 1.9583 1.25908C2.58979 0.627594 3.44627 0.272827 4.33933 0.272827ZM15.5636 0.272827C16.4567 0.272827 17.3132 0.627594 17.9446 1.25908C18.5761 1.89057 18.9309 2.74705 18.9309 3.64011V17.1093C18.9309 18.0023 18.5761 18.8588 17.9446 19.4903C17.3132 20.1218 16.4567 20.4765 15.5636 20.4765C14.6706 20.4765 13.8141 20.1218 13.1826 19.4903C12.5511 18.8588 12.1963 18.0023 12.1963 17.1093V3.64011C12.1963 2.74705 12.5511 1.89057 13.1826 1.25908C13.8141 0.627594 14.6706 0.272827 15.5636 0.272827Z" fill="white"/>
</svg>
