<svg width="22" height="28" viewBox="0 0 22 28" fill="none" xmlns="http://www.w3.org/2000/svg">
<path d="M17 12V7C17 5.4087 16.3679 3.88258 15.2426 2.75736C14.1174 1.63214 12.5913 1 11 1C9.4087 1 7.88258 1.63214 6.75736 2.75736C5.63214 3.88258 5 5.4087 5 7V12M4 27H18C18.7956 27 19.5587 26.6839 20.1213 26.1213C20.6839 25.5587 21 24.7957 21 24V15C21 14.2044 20.6839 13.4413 20.1213 12.8787C19.5587 12.3161 18.7956 12 18 12H4C3.20435 12 2.44129 12.3161 1.87868 12.8787C1.31607 13.4413 1 14.2044 1 15V24C1 24.7957 1.31607 25.5587 1.87868 26.1213C2.44129 26.6839 3.20435 27 4 27Z" stroke="white" stroke-width="2" stroke-linecap="round" stroke-linejoin="round"/>
</svg>
