<svg width="23" height="19" viewBox="0 0 23 19" fill="none" xmlns="http://www.w3.org/2000/svg">
<path d="M22.7164 14.8702C22.8713 15.0252 22.9584 15.2354 22.9584 15.4545C22.9584 15.6737 22.8713 15.8839 22.7164 16.0389L20.2373 18.5179C20.1217 18.6335 19.9745 18.7122 19.8142 18.7441C19.6539 18.776 19.4877 18.7596 19.3367 18.6971C19.1857 18.6345 19.0567 18.5286 18.9659 18.3927C18.8751 18.2568 18.8266 18.097 18.8266 17.9336V16.2809H15.9465C15.6834 16.2806 15.4243 16.2177 15.1904 16.0974C14.9565 15.977 14.7547 15.8027 14.6016 15.5888L6.83248 4.71179L1.47315 4.71189C1.25398 4.71189 1.0438 4.62483 0.888824 4.46985C0.733852 4.31488 0.64679 4.1047 0.64679 3.88553C0.64679 3.66637 0.733852 3.45618 0.888824 3.30121C1.0438 3.14624 1.25398 3.05918 1.47315 3.05918H6.83237C7.0954 3.05942 7.35458 3.12233 7.58846 3.24268C7.82234 3.36303 8.02418 3.53737 8.17727 3.75125L15.9465 14.6283H18.8266V12.9754C18.8266 12.812 18.8751 12.6522 18.9659 12.5163C19.0567 12.3804 19.1857 12.2745 19.3367 12.212C19.4877 12.1494 19.6539 12.1331 19.8142 12.1649C19.9745 12.1968 20.1217 12.2755 20.2373 12.3911L22.7164 14.8702ZM12.9401 7.49908C13.0284 7.56219 13.1282 7.60728 13.234 7.63178C13.3397 7.65627 13.4492 7.6597 13.5563 7.64186C13.6633 7.62402 13.7658 7.58526 13.8579 7.52779C13.9499 7.47033 14.0298 7.39529 14.0928 7.30696L15.9465 4.71189H18.8266V6.3646C18.8266 6.52804 18.8751 6.68782 18.9659 6.82372C19.0567 6.95961 19.1857 7.06554 19.3367 7.12808C19.4877 7.19063 19.6539 7.20699 19.8142 7.17511C19.9745 7.14322 20.1217 7.06451 20.2373 6.94894L22.7164 4.46987C22.8713 4.31488 22.9584 4.10469 22.9584 3.88553C22.9584 3.66637 22.8713 3.45618 22.7164 3.3012L20.2373 0.822127C20.1217 0.706553 19.9745 0.627846 19.8142 0.595958C19.6539 0.564071 19.4877 0.580435 19.3367 0.642983C19.1857 0.70553 19.0567 0.811451 18.9659 0.94735C18.8751 1.08325 18.8266 1.24302 18.8266 1.40646V3.05918H15.9465C15.6834 3.05944 15.4243 3.12235 15.1904 3.2427C14.9565 3.36305 14.7547 3.53738 14.6016 3.75125L12.7479 6.34621C12.6849 6.43452 12.6398 6.53439 12.6153 6.64011C12.5908 6.74583 12.5874 6.85534 12.6053 6.96239C12.6231 7.06943 12.6618 7.17192 12.7193 7.26399C12.7767 7.35605 12.8518 7.43591 12.9401 7.49898V7.49908ZM9.83876 11.8411C9.75046 11.778 9.6506 11.7329 9.54488 11.7084C9.43916 11.6839 9.32965 11.6805 9.22261 11.6983C9.11556 11.7162 9.01308 11.7549 8.92101 11.8123C8.82893 11.8698 8.74908 11.9448 8.68599 12.0331L6.83237 14.6282H1.47315C1.25398 14.6282 1.0438 14.7152 0.888824 14.8702C0.733852 15.0252 0.64679 15.2354 0.64679 15.4545C0.64679 15.6737 0.733852 15.8839 0.888824 16.0388C1.0438 16.1938 1.25398 16.2809 1.47315 16.2809H6.83237C7.0954 16.2806 7.35457 16.2177 7.58845 16.0973C7.82232 15.977 8.02417 15.8027 8.17727 15.5888L10.0309 12.9938C10.094 12.9055 10.139 12.8057 10.1635 12.6999C10.188 12.5942 10.1914 12.4847 10.1736 12.3777C10.1557 12.2706 10.117 12.1681 10.0595 12.0761C10.0021 11.984 9.92707 11.9041 9.83876 11.8411Z" fill="white"/>
</svg>
