<svg width="17" height="21" viewBox="0 0 17 21" fill="none" xmlns="http://www.w3.org/2000/svg">
<path d="M3.48489 0.836623C3.2333 0.658884 2.9377 0.553723 2.63038 0.532631C2.32306 0.511539 2.01586 0.575328 1.74235 0.717028C1.46883 0.858728 1.23953 1.07288 1.07951 1.33609C0.919479 1.5993 0.834882 1.90144 0.834961 2.20948V19.1307C0.834882 19.4388 0.919479 19.7409 1.07951 20.0041C1.23953 20.2673 1.46883 20.4815 1.74235 20.6232C2.01586 20.7649 2.32306 20.8287 2.63038 20.8076C2.9377 20.7865 3.2333 20.6813 3.48489 20.5036L15.4709 12.043C15.6907 11.8878 15.8701 11.6821 15.9939 11.4432C16.1177 11.2043 16.1823 10.9392 16.1823 10.6701C16.1823 10.401 16.1177 10.1359 15.9939 9.89698C15.8701 9.65808 15.6907 9.4524 15.4709 9.29724L3.48489 0.836623ZM2.51532 2.20948L14.5013 10.6701L2.51532 19.1307V2.20948Z" fill="white"/>
</svg>
