<svg width="22" height="21" viewBox="0 0 22 21" fill="none" xmlns="http://www.w3.org/2000/svg">
<path d="M18.4728 20.5036C18.7244 20.6813 19.02 20.7865 19.3273 20.8076C19.6346 20.8287 19.9418 20.7649 20.2153 20.6232C20.4888 20.4815 20.7181 20.2673 20.8782 20.0041C21.0382 19.7409 21.1228 19.4388 21.1227 19.1307V2.20948C21.1228 1.90144 21.0382 1.5993 20.8782 1.33609C20.7181 1.07288 20.4888 0.858728 20.2153 0.717028C19.9418 0.575328 19.6346 0.511539 19.3273 0.532631C19.02 0.553723 18.7244 0.658884 18.4728 0.836623L6.48676 9.29724C6.26693 9.4524 6.08757 9.65808 5.96377 9.89698C5.83998 10.1359 5.77536 10.401 5.77536 10.6701C5.77536 10.9392 5.83998 11.2043 5.96377 11.4432C6.08757 11.6821 6.26693 11.8878 6.48676 12.043L18.4728 20.5036ZM19.4423 19.1307L7.45633 10.6701L19.4423 2.20948V19.1307Z" fill="white"/>
<path d="M0.958313 19.9119C0.958313 20.1347 1.04683 20.3485 1.2044 20.506C1.36196 20.6636 1.57566 20.7521 1.79849 20.7521C2.02132 20.7521 2.23503 20.6636 2.39259 20.506C2.55015 20.3485 2.63867 20.1347 2.63867 19.9119V1.42795C2.63867 1.20512 2.55015 0.991416 2.39259 0.833852C2.23503 0.676287 2.02132 0.587769 1.79849 0.587769C1.57566 0.587769 1.36196 0.676287 1.2044 0.833852C1.04683 0.991416 0.958313 1.20512 0.958313 1.42795V19.9119Z" fill="white"/>
</svg>
