<svg width="20" height="22" viewBox="0 0 20 22" fill="none" xmlns="http://www.w3.org/2000/svg">
<path d="M5.21699 9.90679C4.97485 9.47111 4.5949 9.12816 4.13676 8.93178C3.67863 8.7354 3.16825 8.69671 2.68574 8.82177C2.20324 8.94684 1.77592 9.22859 1.47087 9.6228C1.16582 10.017 1.00031 10.5013 1.00031 10.9998C1.00031 11.4982 1.16582 11.9826 1.47087 12.3768C1.77592 12.771 2.20324 13.0527 2.68574 13.1778C3.16825 13.3029 3.67863 13.2642 4.13676 13.0678C4.5949 12.8714 4.97485 12.5285 5.21699 12.0928M5.21699 9.90679C5.39699 10.2308 5.49999 10.6028 5.49999 10.9998C5.49999 11.3968 5.39699 11.7698 5.21699 12.0928M5.21699 9.90679L14.783 4.59279M5.21699 12.0928L14.783 17.4068M14.783 17.4068C14.6395 17.6652 14.5482 17.9493 14.5145 18.2429C14.4808 18.5366 14.5052 18.834 14.5864 19.1182C14.6676 19.4024 14.804 19.6678 14.9878 19.8993C15.1715 20.1307 15.3991 20.3238 15.6575 20.4673C15.9159 20.6108 16.2 20.7021 16.4936 20.7358C16.7873 20.7695 17.0847 20.7451 17.3689 20.6639C17.653 20.5827 17.9185 20.4463 18.15 20.2625C18.3814 20.0787 18.5745 19.8512 18.718 19.5928C19.0079 19.071 19.0786 18.4554 18.9146 17.8814C18.7506 17.3075 18.3653 16.8222 17.8435 16.5323C17.3217 16.2424 16.7061 16.1717 16.1321 16.3357C15.5582 16.4997 15.0729 16.885 14.783 17.4068V17.4068ZM14.783 4.59279C14.9232 4.85693 15.1148 5.09046 15.3463 5.27972C15.5779 5.46899 15.8448 5.61019 16.1316 5.69507C16.4184 5.77995 16.7192 5.80682 17.0165 5.77409C17.3137 5.74136 17.6015 5.6497 17.8629 5.50446C18.1243 5.35922 18.3542 5.16332 18.539 4.92821C18.7239 4.6931 18.86 4.4235 18.9394 4.13518C19.0188 3.84685 19.04 3.54559 19.0016 3.24899C18.9633 2.95239 18.8662 2.66642 18.716 2.40779C18.4201 1.89814 17.936 1.52493 17.3678 1.36841C16.7996 1.21188 16.1927 1.28454 15.6775 1.57075C15.1623 1.85696 14.78 2.33388 14.6127 2.89899C14.4455 3.4641 14.5066 4.07228 14.783 4.59279V4.59279Z" stroke="#7C9A92" stroke-width="1.5" stroke-linecap="round" stroke-linejoin="round"/>
</svg>
