<svg width="14" height="18" viewBox="0 0 14 18" fill="none" xmlns="http://www.w3.org/2000/svg">
<path d="M10.6 7.76923V4.69231C10.6 3.71305 10.2207 2.77389 9.54558 2.08145C8.87045 1.38901 7.95478 1 7 1C6.04522 1 5.12955 1.38901 4.45442 2.08145C3.77928 2.77389 3.4 3.71305 3.4 4.69231V7.76923M2.8 17H11.2C11.6774 17 12.1352 16.8055 12.4728 16.4593C12.8104 16.1131 13 15.6435 13 15.1538V9.61538C13 9.12575 12.8104 8.65618 12.4728 8.30996C12.1352 7.96374 11.6774 7.76923 11.2 7.76923H2.8C2.32261 7.76923 1.86477 7.96374 1.52721 8.30996C1.18964 8.65618 1 9.12575 1 9.61538V15.1538C1 15.6435 1.18964 16.1131 1.52721 16.4593C1.86477 16.8055 2.32261 17 2.8 17Z" stroke="white" stroke-width="1.5" stroke-linecap="round" stroke-linejoin="round"/>
</svg>
