<?xml version="1.0" encoding="utf-8"?>
<!-- Generator: Adobe Illustrator 27.9.0, SVG Export Plug-In . SVG Version: 6.00 Build 0)  -->
<svg version="1.1" id="Layer_1" xmlns="http://www.w3.org/2000/svg" xmlns:xlink="http://www.w3.org/1999/xlink" x="0px" y="0px"
	 viewBox="0 0 100 100" style="enable-background:new 0 0 100 100;" xml:space="preserve">
<g>
	<path d="M87.3,10.2C74,11.1,61.5,14.1,50,19.1c-11.5-5-24-8.1-37.3-8.9L10.4,10v70.5l2,0.1c13.1,0.9,25.4,3.9,36.6,9L50,90l0.9-0.4
		c11.2-5.1,23.5-8.1,36.6-9l2-0.1V10L87.3,10.2z M85.2,76.4c-11.7,1-22.8,3.6-33,7.9v-7.5h-4.4v7.5c-10.3-4.2-21.3-6.9-33-7.9V14.7
		c11.7,1,22.8,3.8,33,8.2v5.6h4.4v-5.6c10.2-4.4,21.3-7.2,33-8.2V76.4z"/>
	<path d="M50,30.7c-12.1,0-22,9.9-22,22c0,12.1,9.9,22,22,22c12.1,0,22-9.9,22-22C72,40.5,62.1,30.7,50,30.7z M50,70.2
		c-9.7,0-17.6-7.9-17.6-17.6S40.3,35.1,50,35.1S67.6,43,67.6,52.6S59.7,70.2,50,70.2z"/>
	<polygon points="52.2,45.6 43.6,45.6 43.6,49.9 47.8,49.9 47.8,59.7 43.6,59.7 43.6,64.1 56.4,64.1 56.4,59.7 52.2,59.7 	"/>
	<rect x="47.8" y="39.5" width="4.4" height="4.4"/>
</g>
</svg>
