<?xml version="1.0" encoding="iso-8859-1"?>
<!-- Generator: Adobe Illustrator 27.0.0, SVG Export Plug-In . SVG Version: 6.00 Build 0)  -->
<svg version="1.1" id="Layer_1" xmlns="http://www.w3.org/2000/svg" xmlns:xlink="http://www.w3.org/1999/xlink" x="0px" y="0px"
	 viewBox="0 0 381.027 384" style="enable-background:new 0 0 381.027 384;" xml:space="preserve">
<path d="M22.411,384c-1.023-0.386-2.031-0.822-3.072-1.151c-15.206-4.803-23.143-20.718-17.541-35.638
	c3.859-10.278,7.976-20.462,12.154-30.615c1.061-2.58,0.899-4.069-1.52-5.862c-13.529-10.027-15.168-24.49-4.416-37.319
	c47.686-56.897,95.39-113.779,142.996-170.742c1.208-1.445,1.861-3.752,1.932-5.688c1.356-36.973,16.305-66.239,48.619-85.512
	c10.192-6.079,21.452-9.392,33.259-10.771c0.97-0.113,1.912-0.462,2.866-0.702c5.501,0,11.001,0,16.502,0
	c0.581,0.203,1.149,0.521,1.746,0.593c31.63,3.817,54.921,19.71,69.784,47.957c0.639,1.215,2.228,2.158,3.585,2.727
	c6.082,2.554,12.545,4.364,18.307,7.482c12.082,6.539,21.667,15.692,25.986,29.22c4.605,14.426-1.826,25.787-16.432,29.463
	c-3.254,0.819-6.496-0.779-7.662-3.776c-1.203-3.095-0.029-6.342,3.023-7.965c1.536-0.817,3.174-1.463,4.811-2.066
	c3.723-1.371,5.346-4.133,4.798-7.9c-0.371-2.548-1.024-5.197-2.202-7.462c-5.769-11.092-15.384-17.63-27.06-22.386
	c0.156,1.291,0.168,2.142,0.368,2.945c6.437,25.758,3.973,50.795-6.196,75.166c-0.969,2.323-0.654,4.035,0.345,6.278
	c5.876,13.202,11.663,26.45,17.125,39.827c1.903,4.66,2.797,9.733,4.197,14.778c2.243-0.367,4.192-0.715,6.149-1
	c13.877-2.023,25.945,7.826,26.011,21.755c0.161,34.373,0.276,68.749-0.073,103.119c-0.135,13.284-6.987,23.118-19.185,28.459
	c-12.073,5.286-23.641,3.43-33.592-5.159c-9.994-8.626-13.094-19.87-9.907-32.576c3.392-13.522,16.356-23.393,30.032-23.39
	c4.026,0.001,6.738,2.156,7.136,5.67c0.383,3.379-2.098,6.363-5.877,6.993c-0.982,0.164-1.995,0.127-2.989,0.235
	c-10.53,1.14-17.986,11.171-16.436,22.099c1.461,10.304,12.03,17.798,22.249,15.777c9.708-1.92,15.897-9.523,15.91-19.819
	c0.04-32.749,0.017-65.498,0.015-98.246c-0.001-10.151-4.574-13.853-14.493-11.744c-0.611,0.13-1.216,0.285-1.828,0.408
	c-27.417,5.49-54.838,10.966-82.251,16.477c-4.953,0.996-8.285,3.903-8.487,8.196c-0.316,6.705-0.084,13.436-0.084,20.258
	c0.778-0.076,1.278-0.081,1.759-0.178c22.526-4.496,45.05-8.999,67.573-13.504c4.864-0.973,8.186,0.775,9.033,4.767
	c0.787,3.709-1.585,6.687-6.31,7.658c-12.106,2.488-24.224,4.91-36.341,7.344c-11.842,2.379-23.687,4.739-35.807,7.162
	c0,1.593,0,2.944,0,4.294c-0.001,23.874,0.145,47.75-0.059,71.622c-0.119,13.948-6.864,23.965-19.518,29.837
	c-2.568,1.192-5.428,1.751-8.154,2.602c-3,0-6.001,0-9.001,0c-2.229-0.724-4.492-1.359-6.683-2.185
	c-14.197-5.353-22.611-20.012-20.193-35.101c2.31-14.41,15.002-25.89,29.361-26.556c5.35-0.248,8.468,1.93,8.622,6.024
	c0.146,3.875-2.688,6.293-7.821,6.736c-7.506,0.647-12.961,4.427-16.017,11.239c-2.989,6.662-2.275,13.19,2.01,19.158
	c4.745,6.61,13.17,9.38,20.975,7.052c7.911-2.36,13.528-9.661,13.651-18.229c0.149-10.372,0.046-20.748,0.046-31.122
	c0.002-25.248-0.01-50.495,0.005-75.743c0.008-13.302,6.834-21.51,19.892-24.1c21.547-4.273,43.088-8.581,64.629-12.886
	c0.968-0.193,1.912-0.503,3.899-1.033c-3.357-9.884-6.229-19.785-10.094-29.283c-3.469-8.527-7.835-16.714-12.194-24.843
	c-2.025-3.776-2.215-6.93-0.436-10.893c10.991-24.482,13.874-49.816,5.438-75.542c-9.916-30.239-30.76-48.961-62.584-52.983
	c-34.399-4.348-60.929,9.324-78.937,38.959c-7.95,13.083-11.363,27.59-11.992,42.825c-0.11,2.663,0.777,4.331,2.864,5.954
	c11.019,8.569,20.576,18.579,28.692,29.941c2.676,3.746,2.211,7.688-1.026,9.841c-3.192,2.124-6.317,1.067-9.41-2.366
	c-7.591-8.426-15.393-16.663-23.148-24.94c-0.836-0.892-1.918-1.554-3.187-2.562c-40.695,48.545-81.293,96.974-122.18,145.748
	c6.976,3.83,14.135,6.157,21.59,7.655c34.892,7.012,67.65-12.463,83.182-44.815c4.972-10.356,7.746-21.306,8.955-32.697
	c0.486-4.575,3.036-6.905,6.961-6.597c3.79,0.298,6.213,3.383,5.745,7.72c-3.404,31.559-16.602,57.813-43.318,75.784
	c-27.649,18.6-56.986,19.405-86.854,5.361c-3.679-1.73-5.768-1.795-8.217,1.697c-2.932,4.179-6.577,7.85-9.777,11.85
	c-4.265,5.331-3.664,12.259,1.816,16.23c40.163,29.099,83.81,37.54,130.592,19.234c34.57-13.527,53.518-40.805,60.87-76.592
	c1.003-4.882,1.399-9.886,2.129-14.826c0.614-4.155,3.341-6.378,7.155-5.929c3.448,0.406,5.837,3.385,5.531,7.237
	c-4.303,54.175-37.138,95.442-89.211,108.35c-0.959,0.238-1.9,0.546-3.118,1.833c9.128,3.121,18.235,6.304,27.395,9.328
	c2.954,0.975,6.051,1.511,9.073,2.285c4.245,1.088,6.508,4.278,5.615,7.858c-0.918,3.678-4.302,5.515-8.531,4.576
	c-18.77-4.167-36.531-10.981-53.388-20.219c-1.672-0.916-3.72-1.723-5.563-1.664c-28.185,0.909-54.451-5.754-78.938-19.638
	c-0.433-0.245-0.893-0.442-1.613-0.795c-0.427,0.842-0.914,1.644-1.257,2.503c-3.656,9.154-7.322,18.304-10.917,27.481
	c-2.604,6.648-1.544,12.616,3.062,16.884c4.996,4.629,10.786,5.283,16.619,2.109c7.212-3.924,14.246-8.203,21.166-12.627
	c3.996-2.554,7.611-2.802,10.019,0.103c2.595,3.13,1.858,6.877-2.055,9.994c-9.543,7.6-20.078,13.39-31.677,17.215
	C28.412,384,25.411,384,22.411,384z"/>
<path d="M239.252,139.34c0,12.482,0.009,24.578-0.008,36.674c-0.003,2.122,0.084,4.271-0.207,6.36
	c-1.412,10.141-9.582,18.064-20.244,19.781c-9.633,1.552-19.939-4.013-24.369-13.158c-4.408-9.099-2.373-20.329,4.94-27.231
	c0.454-0.428,0.916-0.854,1.417-1.225c2.987-2.215,6.44-1.985,8.779,0.564c2.354,2.567,2.411,6.09-0.254,8.749
	c-2.793,2.786-4.775,5.8-4.335,9.885c0.608,5.644,5.462,9.982,10.895,9.863c5.874-0.129,10.529-4.784,10.566-10.948
	c0.092-15.115,0.034-30.232,0.036-45.348c0-1.124-0.045-2.251,0.014-3.373c0.27-5.116,4.268-7.743,9.097-6.185
	c8.049,2.596,16.13,5.097,24.222,7.556c3.618,1.1,5.626,4.131,4.87,7.697c-0.686,3.23-3.826,5.514-7.361,4.825
	c-4.764-0.929-9.451-2.257-14.168-3.428C241.964,140.107,240.797,139.763,239.252,139.34z"/>
<path d="M279.497,59.859c6.498,0.001,11.514,2.188,15.551,6.5c2.64,2.819,2.681,6.582,0.283,9.086
	c-2.421,2.528-6.001,2.576-9.087,0.122c-4.946-3.933-8.005-3.974-13.033-0.172c-3.763,2.845-7.553,2.718-9.897-0.333
	c-2.409-3.135-1.714-6.679,1.986-9.759C269.568,61.75,274.43,59.756,279.497,59.859z"/>
</svg>
