<?xml version="1.0" encoding="iso-8859-1"?>
<!-- Generator: Adobe Illustrator 27.0.0, SVG Export Plug-In . SVG Version: 6.00 Build 0)  -->
<svg version="1.1" id="Layer_1" xmlns="http://www.w3.org/2000/svg" xmlns:xlink="http://www.w3.org/1999/xlink" x="0px" y="0px"
	 viewBox="0 0 384 384" style="enable-background:new 0 0 384 384;" xml:space="preserve">
<path d="M0,374.255c2.2-4.076,5.586-5.36,10.195-5.33c25.868,0.166,51.737,0.08,77.606,0.08c1.348,0,2.695,0,4.257,0
	c0-16.101,0-31.895,0-47.899c-12.796-1.136-24.928-4.281-36.308-10.002C32.928,299.632,16.693,282.045,7.01,258.4
	c-1.24-3.028-1.195-5.854,0.936-8.435c1.943-2.354,4.817-3.521,7.358-2.277c2.326,1.139,4.714,3.385,5.743,5.728
	c5.313,12.093,12.573,22.698,22.501,31.421c13.829,12.152,29.921,19.157,48.727,21.168c0-1.387,0-2.59,0-3.792
	c0-17.996,0.067-35.993-0.101-53.987c-0.017-1.843-0.994-4.098-2.281-5.438c-7.356-7.66-15.007-15.036-22.423-22.64
	c-4.41-4.521-2.785-11.232,2.953-12.838c3.101-0.868,5.618,0.279,7.789,2.464c2.201,2.217,4.444,4.393,6.622,6.633
	c2.175,2.237,4.291,4.53,7.032,7.433c0.204-1.748,0.391-2.621,0.395-3.495c0.026-6.374-0.037-12.748,0.033-19.121
	c0.055-4.994,3.319-8.47,7.666-8.357c4.243,0.111,7.284,3.467,7.296,8.316c0.043,16.621,0.018,33.243,0.018,49.864
	c0,1.35,0,2.7,0,4.723c1.248-1.06,2.086-1.678,2.816-2.406c6.818-6.791,13.563-13.655,20.443-20.382
	c3.521-3.443,7.935-3.427,11.01-0.254c2.91,3.003,2.772,7.303-0.368,10.765c-0.671,0.74-1.403,1.424-2.11,2.131
	c-9.808,9.81-19.676,19.561-29.355,29.497c-1.3,1.334-2.274,3.577-2.329,5.431c-0.247,8.345-0.108,16.701-0.108,25.376
	c8.973-0.628,17.291-2.653,25.152-6.141c26.359-11.697,43.207-31.486,50.117-59.613c0.516-2.099,0.317-3.33-1.627-4.655
	c-33.075-22.539-53.068-53.567-59.882-93.008c-0.443-2.566-1.433-3.414-3.884-3.945c-38.951-8.43-79.65,12.764-95.392,49.788
	c-0.39,0.918-0.733,1.859-1.167,2.756c-1.938,4.007-5.781,5.702-9.573,4.248c-3.931-1.507-5.841-5.61-4.245-9.84
	c4.459-11.823,10.935-22.479,19.685-31.586c24.932-25.948,55.29-36.062,90.847-30.613c0.488,0.075,0.979,0.139,1.453,0.206
	c0.613-7.368,0.8-14.725,1.896-21.943c6.746-44.408,29.697-77.948,68.249-100.889C189.216,0.51,189.47,0.233,189.75,0
	c1.5,0,3,0,4.5,0c0.503,0.342,0.993,0.707,1.512,1.023c40.222,24.459,63.224,59.955,68.313,106.846
	c0.663,6.11,0.662,12.291,0.976,18.583c1.099-0.244,1.952-0.404,2.791-0.623c43.984-11.451,85.769,24.623,80.667,69.739
	c-0.272,2.402,0.339,3.52,2.32,4.717c13.625,8.236,23.376,19.814,28.744,34.811c1.956,5.464,2.978,11.262,4.427,16.907
	c0,4.75,0,9.5,0,14.25c-0.22,0.563-0.557,1.108-0.642,1.691c-6.561,44.746-51.155,70.922-93.336,54.78
	c-0.863-0.33-1.776-0.532-2.714-0.807c0,15.825,0,31.353,0,47.088c1.679,0,3.04,0,4.401,0c27.366,0,54.732,0.083,82.097-0.081
	c4.612-0.028,7.984,1.275,10.194,5.331c0,3.247,0,6.494,0,9.743c-128,0.002-256,0.002-384,0C0,380.749,0,377.502,0,374.255z
	 M286.977,238.973c1.611-1.509,2.508-2.306,3.357-3.151c4.869-4.852,9.655-9.791,14.634-14.528c1.381-1.314,3.215-2.518,5.032-2.927
	c3.4-0.766,6.16,0.78,7.771,3.872c1.808,3.471,0.8,6.535-1.843,9.181c-8.922,8.93-17.912,17.793-26.71,26.844
	c-1.221,1.257-2.108,3.413-2.133,5.167c-0.179,12.621-0.021,25.246-0.159,37.868c-0.028,2.527,0.896,3.81,3.036,4.909
	c14.736,7.565,29.998,8.855,45.242,2.454c20.61-8.654,32.458-24.589,33.55-46.933c1.122-22.957-9.405-40.092-29.795-50.892
	c-6.588-3.489-7.161-4.885-6.166-12.079c0.764-5.524,1.468-11.313,0.649-16.752c-3.079-20.469-14.558-34.703-34.353-40.913
	c-19.956-6.261-37.829-1.301-51.781,14.244c-13.747,15.318-16.28,33.24-8.805,52.405c3.301,8.464,2.088,11.467-6.491,14.139
	c-25.612,7.976-39.203,36.259-29.363,61.106c10.022,25.307,39.452,36.747,63.721,24.941c4.023-1.957,6.553-4.155,5.676-9.021
	c-0.349-1.937-0.218-4.005-0.019-5.985c0.275-2.738-0.741-4.646-2.699-6.556c-8.32-8.115-16.52-16.355-24.674-24.638
	c-3.268-3.32-3.339-7.715-0.463-10.73c2.976-3.121,7.582-3.135,11.016,0.184c4.762,4.603,9.384,9.351,14.088,14.014
	c0.637,0.631,1.402,1.133,2.693,2.16c0-2.066,0-3.409,0-4.752c0.001-12.748-0.025-25.497,0.017-38.245
	c0.016-4.942,1.826-7.571,5.645-8.554c4.956-1.275,9.109,2.151,9.294,7.898C287.1,228.496,286.977,233.298,286.977,238.973z
	 M199.498,110.303c0.308,0.15,0.615,0.299,0.923,0.449c3.738-3.848,7.453-7.72,11.223-11.537c2.303-2.332,5.057-3.177,8.213-1.983
	c5.256,1.989,6.492,8.259,2.309,12.562c-6.708,6.899-13.666,13.558-20.308,20.519c-1.281,1.342-2.25,3.602-2.26,5.445
	c-0.143,26.747-0.101,53.496-0.089,80.244c0,1.039,0.142,2.078,0.218,3.117c0.315,0.199,0.63,0.399,0.945,0.598
	c6.243-6.057,12.539-12.062,18.663-18.238c0.772-0.778,1.009-2.5,0.866-3.711c-2.892-24.564,5.074-44.853,24.413-60.215
	c3.792-3.012,4.924-6.102,5.031-10.317c1.164-45.524-16.766-81.58-53.543-108.395c-2.992-2.182-5.045-2.185-8.126-0.061
	c-60.276,41.535-71.695,125.153-24.618,181.195c6.09,7.249,12.886,13.755,21.14,19.716c0-1.801,0-2.89,0-3.98
	c0-14.874-0.05-29.748,0.05-44.621c0.017-2.434-0.67-4.161-2.42-5.877c-8.569-8.398-17.017-16.92-25.489-25.417
	c-4.212-4.224-4.683-8.403-1.393-11.816c3.238-3.359,7.879-2.855,12.105,1.351c4.784,4.761,9.539,9.551,14.325,14.31
	c0.737,0.733,1.571,1.369,2.821,2.449c0-11.263,0-21.862,0-32.461c0-11.124-0.055-22.249,0.024-33.372
	c0.043-6.076,5.157-9.812,10.266-7.629c3.4,1.453,4.729,4.19,4.718,7.78C199.478,90.373,199.498,100.338,199.498,110.303z
	 M107.468,368.734c25.787,0,51.316,0,76.815,0c0-31.179,0-62.086,0-93.784c-18.798,27.531-44.198,42.843-76.815,46.237
	C107.468,337.031,107.468,352.733,107.468,368.734z M271.988,322.134c-27.724,10.67-51.601,5.475-72.24-15.127
	c0,20.897,0,41.331,0,61.703c24.155,0,48.061,0,72.24,0c0-14.399,0-28.505,0-42.611
	C271.988,324.991,271.988,323.883,271.988,322.134z"/>
<path d="M384,50.251c-2.136,5.816-3.504,12.074-6.549,17.366c-10.332,17.958-31.614,25.915-51.422,19.886
	c-19.789-6.024-32.486-24.741-31.344-46.203c1.037-19.477,16.425-36.693,36.212-40.534C331.862,0.578,332.8,0.258,333.75,0
	c3.75,0,7.5,0,11.25,0c0.811,0.253,1.609,0.567,2.436,0.751c17.403,3.854,28.957,14.221,34.609,31.122
	c0.78,2.333,1.31,4.75,1.956,7.128C384,42.751,384,46.501,384,50.251z M339.421,74.418c16.46-0.089,29.681-13.477,29.568-29.94
	c-0.113-16.355-13.644-29.601-30.097-29.463c-16.226,0.136-29.337,13.473-29.304,29.81
	C309.621,61.344,322.891,74.507,339.421,74.418z"/>
<path d="M0,219.003c0.453-0.546,0.92-1.081,1.357-1.64c2.292-2.929,5.708-4.052,8.886-2.705c3.167,1.343,4.863,3.857,4.681,7.31
	c-0.173,3.27-1.96,5.586-5.076,6.658c-3.329,1.146-6.683-0.146-8.73-3.205c-0.411-0.614-0.747-1.277-1.117-1.918
	C0,222.003,0,220.503,0,219.003z"/>
</svg>
